<svg width="256" height="256" viewBox="0 0 256 256" fill="none" xmlns="http://www.w3.org/2000/svg">
<g clip-path="url(#clip0_2080_415)">
<rect width="256" height="256" fill="#FF6325"/>
<path d="M127.662 38.8611C146.76 38.8833 168.299 44.6474 182.972 58.9607C231.913 106.704 280.058 156.087 328.437 204.49C335.769 211.822 341.179 220.919 344.354 230.7C346.547 237.452 347.686 244.549 347.686 251.661C347.686 259.889 347.674 280.469 347.662 301.614C347.65 322.761 347.638 344.475 347.638 354.974V359.314H295.43L294.158 358.043L291.028 354.911C266.648 366.085 232.248 363.973 211.979 343.704L211.979 343.703C164 295.701 115.309 246.986 67.0596 198.713C61.7277 193.381 57.4921 186.919 54.8438 179.795C52.3353 173.047 51.3606 165.946 51.7393 158.848C52.3949 146.558 57.0005 134.548 65.3477 125.364L53.1445 113.155L51.6689 111.679L51.9014 109.603C53.4829 95.4838 56.3088 81.2266 64.7832 68.5086L64.8105 68.4676L64.8389 68.4266C79.1108 48.0281 103.711 38.8334 127.661 38.8611H127.662Z" fill="black" stroke="black" stroke-width="8.67979"/>
<path d="M128.009 51.2263C140.633 51.2263 151.663 53.5135 161.141 58.0876C170.598 62.6617 177.915 69.1091 183.091 77.386C188.245 85.6847 190.844 95.3555 190.844 106.42V164.773C190.844 165.559 190.828 166.328 190.797 167.082V201.954H160.029V183.355C150.344 197.583 131.105 204.263 114.861 204.263C104.924 204.263 96.0782 202.455 88.3248 198.839L88.3032 198.818C80.5499 195.202 74.4782 190.149 70.0882 183.658C65.6983 177.189 63.4922 169.826 63.4922 161.637C63.4922 148.873 67.8821 138.527 76.6838 130.598C85.4855 122.692 98.0875 117.681 114.533 115.59L146.377 111.3C150.571 110.733 153.738 109.448 155.834 107.444C157.931 105.44 158.979 102.631 158.979 99.0151C158.979 92.546 156.162 87.1439 150.527 82.8529C144.892 78.562 137.379 76.4058 128.009 76.4058C118.64 76.4058 111.323 78.6929 105.492 83.267C99.6602 87.8411 96.4495 94.1358 95.8816 102.151H64.6281C65.7856 91.8488 69.0836 82.8529 74.5219 75.1205C79.982 67.4099 87.2766 61.4853 96.4714 57.3904C105.644 53.2737 116.172 51.2263 128.009 51.2263ZM119.71 137.873C111.672 139.202 105.601 141.728 101.495 145.453C97.3888 149.178 95.3355 154.166 95.3355 160.46C95.3355 166.189 97.5854 170.807 102.085 174.335C106.584 177.864 112.459 179.628 119.732 179.628C132.159 179.628 141.965 175.664 149.129 167.757L149.107 167.779C156.271 159.872 159.853 149.613 159.853 137.023V131.578L119.71 137.873Z" fill="white"/>
</g>
<defs>
<clipPath id="clip0_2080_415">
<rect width="256" height="256" rx="48" fill="white"/>
</clipPath>
</defs>
</svg>
