<svg xmlns="http://www.w3.org/2000/svg" fill="currentColor" viewBox="0 0 72 72" class="icon--decorative is-product">
  <title>Twilio Programmable Voice logo</title> 
    <g class="twilio_programmable-voice">
    <path d="M54.384 67.979a5.27 5.27 0 0 1-2.669-.734 138.575 138.575 0 0 1-15.78-10.953c-4.056-3.337-7.271-6.211-10.087-9.023-2.816-2.811-5.926-6.252-9.456-10.491-2.857-3.525-7.354-9.694-10.695-15.506a5.265 5.265 0 0 1 .84-6.337l8.447-8.456c1.997-1.972 5.443-1.972 7.439 0l10.212 10.198a5.217 5.217 0 0 1 1.534 3.714 5.217 5.217 0 0 1-1.534 3.714l-2.794 2.79c2.857 3.588 5.337 6.379 7.774 8.813 2.816 2.812 5.569 5.288 8.405 7.554l2.795-2.791c2.038-2.035 5.38-2.056 7.439 0l10.212 10.218A5.217 5.217 0 0 1 68 54.403a5.217 5.217 0 0 1-1.534 3.714l-8.342 8.33A5.27 5.27 0 0 1 54.384 68v-.021ZM18.683 9.165a.986.986 0 0 0-.736.315L9.5 17.894c-.336.336-.4.86-.168 1.28 3.215 5.602 7.564 11.54 10.296 14.94 3.425 4.112 6.43 7.448 9.183 10.176 2.732 2.727 5.82 5.497 9.77 8.729a134.385 134.385 0 0 0 15.277 10.617c.4.23.946.167 1.282-.168l8.342-8.33c.273-.273.315-.588.315-.735a1.02 1.02 0 0 0-.315-.734L53.27 43.45a1.08 1.08 0 0 0-1.492 0l-4.14 4.133a2.095 2.095 0 0 1-2.794.147l-1.471-1.175a102.691 102.691 0 0 1-8.741-7.869c-2.543-2.538-5.128-5.455-8.09-9.148l-1.177-1.469a2.087 2.087 0 0 1 .147-2.79l4.118-4.134a1.05 1.05 0 0 0 .316-.734 1.02 1.02 0 0 0-.316-.735L19.44 9.46a1.056 1.056 0 0 0-.736-.315h-.021v.021Z" class="path-fill"/>
  </g>
</svg>
